<?xml version="1.0" encoding="utf-8"?>
<!-- Generator: Adobe Illustrator 25.0.0, SVG Export Plug-In . SVG Version: 6.00 Build 0)  -->
<svg version="1.1" id="Capa_1" xmlns="http://www.w3.org/2000/svg" xmlns:xlink="http://www.w3.org/1999/xlink" x="0px" y="0px"
	 viewBox="0 0 841.89 595.28" style="enable-background:new 0 0 841.89 595.28;" xml:space="preserve">
<style type="text/css">
	.st0{opacity:0.57;fill:#333331;}
	.st1{fill-rule:evenodd;clip-rule:evenodd;fill:#E3E4E2;}
	.st2{fill:#333331;}
	.st3{fill-rule:evenodd;clip-rule:evenodd;fill:#CCCACA;}
	.st4{fill-rule:evenodd;clip-rule:evenodd;fill:#878889;stroke:#B9BAB9;stroke-width:0.5;stroke-miterlimit:10;}
	.st5{fill-rule:evenodd;clip-rule:evenodd;fill:#B2B2B2;}
	.st6{opacity:0.79;fill-rule:evenodd;clip-rule:evenodd;fill:#9A9A9B;}
	.st7{fill:none;stroke:#333331;stroke-width:0.75;stroke-miterlimit:10;}
	.st8{fill:none;stroke:#0853A0;stroke-miterlimit:10;}
	.st9{fill:none;}
	.st10{fill:#878889;}
	.st11{fill:none;stroke:#E4E4E3;stroke-width:0.25;stroke-miterlimit:10;}
	.st12{fill-rule:evenodd;clip-rule:evenodd;fill:#333331;}
</style>
<g>
	<path class="st0" d="M482.85,282.91l-1-5.53c-7.81,1.41-15.85,3.58-23.95,6.37c-2.51-10.88-6.93-22.54-13.23-34.22l30.3-17.04
		l-2.76-4.9l-30.31,17.05c-6.7-11.44-14.35-21.29-22.34-29.1c6.58-5.47,12.6-11.21,17.86-17.15l-4.21-3.73
		c-5.22,5.89-11.22,11.59-17.79,17c-16.8-14.76-34.5-20.46-47.24-13.3c-12.74,7.17-17.06,25.25-13.17,47.28
		c-8.04,2.8-16.02,4.97-23.77,6.37l1,5.53c7.81-1.41,15.84-3.57,23.93-6.36c2.52,10.89,6.96,22.54,13.26,34.21l-30.31,17.05
		l2.76,4.9l30.3-17.04c6.71,11.45,14.37,21.27,22.37,29.08c-6.59,5.47-12.61,11.21-17.88,17.16l4.21,3.73
		c5.23-5.9,11.25-11.61,17.83-17.04c14.7,12.89,30.08,18.88,42.23,15.34c1.33-1.28,2.78-2.44,4.35-3.42c1.77-1.1,3.62-1.87,5.51-2.4
		c8.84-8.69,11.52-24.63,8.22-43.45C467.09,286.5,475.09,284.32,482.85,282.91z M452.42,285.71c-8.47,3.22-16.96,7.15-25.31,11.7
		l-16.24-28.87l28.9-16.25C445.83,263.58,450.07,275.05,452.42,285.71z M437.02,247.39l-28.9,16.25l-16.24-28.87
		c8.22-4.77,15.99-9.98,23.14-15.55C422.91,226.77,430.52,236.34,437.02,247.39z M410.78,215.39c-6.71,5.17-13.97,10.03-21.65,14.49
		l-15.59-27.72C383.54,198.53,397.31,203.89,410.78,215.39z M368.64,204.91l15.59,27.72c-7.8,4.25-15.72,7.93-23.63,10.98
		C357.77,226.13,360.34,211.58,368.64,204.91z M361.68,249.23c8.47-3.22,16.97-7.15,25.31-11.7l16.24,28.87l-28.9,16.26
		C368.26,271.36,364.03,259.89,361.68,249.23z M377.08,287.55l28.9-16.26l16.24,28.87c-8.22,4.77-15.99,9.98-23.14,15.55
		C391.18,308.17,383.58,298.6,377.08,287.55z M403.32,319.55c6.71-5.17,13.97-10.03,21.66-14.49l15.59,27.72
		C430.55,336.4,416.78,331.05,403.32,319.55z M445.45,330.03l-15.59-27.72c7.8-4.25,15.72-7.93,23.63-10.98
		C456.32,308.81,453.75,323.35,445.45,330.03z"/>
	<path class="st1" d="M424.12,283.49l-9.02,5.67c-1.53,0.96-2,3-1.03,4.53l0.17,0.26l0.17,0.26l1.75,2.78l0,0
		c2.11,3.35,6.57,4.37,9.92,2.26l2.41-1.51c3.35-2.11,4.37-6.57,2.26-9.92l0,0l-1.75-2.78l-0.17-0.26l-0.17-0.26
		C427.69,283,425.65,282.53,424.12,283.49L424.12,283.49z M421.88,289.94c0.9-0.56,2.08-0.29,2.65,0.6
		c0.36,0.57,0.38,1.26,0.11,1.84c0.04,0.04,0.07,0.09,0.1,0.14l0.59,0.93c0.31,0.49,0.16,1.14-0.33,1.45h0
		c-0.49,0.31-1.14,0.16-1.45-0.33l-0.59-0.93c-0.03-0.05-0.06-0.1-0.08-0.15c-0.63-0.01-1.24-0.32-1.61-0.9
		C420.71,291.69,420.98,290.5,421.88,289.94L421.88,289.94z M422.96,281.27c0.44,0.71,0.23,1.64-0.48,2.08
		c-0.71,0.44-1.64,0.23-2.08-0.48l-0.82-1.3h0c-0.37-0.59-0.94-0.97-1.57-1.11c-0.63-0.14-1.31-0.05-1.9,0.32l0,0l0,0
		c-0.59,0.37-0.97,0.94-1.11,1.57c-0.14,0.63-0.05,1.31,0.32,1.89l0.82,1.3c0.44,0.71,0.23,1.64-0.48,2.08
		c-0.71,0.44-1.64,0.23-2.08-0.48l-0.82-1.3c-0.81-1.29-1.02-2.79-0.71-4.17c0.31-1.38,1.16-2.64,2.45-3.45l0,0l0,0.01
		c1.3-0.81,2.79-1.03,4.17-0.71c1.38,0.31,2.64,1.16,3.45,2.45l0,0L422.96,281.27z"/>
	<g>
		<g>
			<g>
				<path class="st2" d="M464.5,212.94c-0.99-1.2-2.09-2.19-3.16-3.14l-0.88-0.79c-0.47-0.41-0.92-0.83-1.37-1.24
					c-0.82-0.76-1.59-1.47-2.42-2.09l-3.55-2.62c-0.36-0.25-0.7-0.51-1.04-0.76c-0.7-0.54-1.37-1.04-2.06-1.4l-6.09-3.62l-0.62,1.05
					l6.12,3.63c0.63,0.33,1.25,0.8,1.92,1.31c0.34,0.26,0.7,0.53,1.06,0.78l3.54,2.61c0.78,0.58,1.53,1.27,2.32,2.01
					c0.45,0.42,0.91,0.85,1.38,1.26l0.88,0.79c1.03,0.92,2.1,1.88,3.07,3.05c5.69,5.77,10.71,13.26,14.49,21.65
					c4.1,9.08,6.46,19.13,6.83,29.05c0.42,9.96-1.17,20.15-4.59,29.47c-3.81,10.41-9.04,18.12-12.75,22.74
					c-4.6,5.42-9.32,9.98-13.3,12.84c-0.68,0.5-1.3,0.96-1.87,1.38c-0.94,0.7-1.72,1.28-2.31,1.68l-1.59,0.95l0.01,0.02
					c1.3-0.53,2.62-0.94,3.97-1.19c0.22-0.16,0.41-0.3,0.65-0.48c0.56-0.42,1.18-0.88,1.85-1.37c4.05-2.91,8.85-7.54,13.52-13.05
					c2.43-3.03,5.5-7.36,8.41-12.87c1.61-3.05,3.17-6.46,4.54-10.22c3.48-9.47,5.09-19.82,4.66-29.94
					c-0.38-10.08-2.78-20.28-6.94-29.51C475.36,226.39,470.26,218.78,464.5,212.94z"/>
			</g>
			<g>
				<path class="st2" d="M482.6,301.12l-4.42-2.05l0.35-0.75c0.06-0.13,0.16-0.35,0.28-0.6c0.18-0.37,0.4-0.83,0.61-1.38
					c0.18-0.56,0.45-1.32,0.75-2.17c0.57-1.62,1.21-3.44,1.87-5.56c2.1-7.55,3.13-16.38,2.81-24.15l-0.24-3.98
					c-0.05-0.89-0.1-1.72-0.25-2.47l-1.05-6.53l-2.01-7.6l-1.21-3.34c-0.84-2.58-1.83-4.65-2.63-6.31l-1.54-3.23
					c-0.15-0.32-0.24-0.49-0.26-0.54l4.17-2.51c0,0,0.21,0.33,0.51,1l1.51,3.16c0.82,1.7,1.94,4.02,2.85,6.84l1.54,4.36l1.87,7.28
					l1.05,6.55c0.2,1,0.26,2.04,0.32,3.06l0.24,4.01c0.34,8.31-0.75,17.68-3,25.77c-0.7,2.27-1.39,4.22-1.95,5.8
					c-0.29,0.82-0.55,1.56-0.76,2.2c-0.31,0.79-0.57,1.36-0.8,1.82c-0.09,0.19-0.17,0.36-0.23,0.5L482.6,301.12z"/>
			</g>
		</g>
		<g>
			<g>
				<path class="st2" d="M427.38,344.04c1.16-0.29,2.29-0.58,3.4-0.92l5.48-1.99c0.47-0.17,0.93-0.33,1.41-0.53l2.35-1.12
					c0.99-1.05,2.06-2.03,3.21-2.91l-6.05,2.91c-0.43,0.17-0.88,0.33-1.33,0.49l-5.46,1.98c-1.06,0.32-2.17,0.6-3.31,0.89
					c-0.67,0.17-1.35,0.34-2.01,0.52c-5.97,1.41-15.32,2.87-26.01,1.8c-9.83-0.94-19.71-3.91-28.59-8.59
					c-8.88-4.68-16.92-11.16-23.25-18.74c-6.93-8.21-11.01-16.75-13.21-22.46c-0.24-0.67-0.48-1.32-0.72-1.97
					c-0.41-1.11-0.8-2.18-1.13-3.2l-1.46-5.66c-0.12-0.47-0.24-0.93-0.34-1.34l-1.16-7.3l-0.33-5.48l-1.22,0.07l0.31,5.11l1.2,7.83
					c0.1,0.47,0.23,0.94,0.36,1.42l1.47,5.68c0.34,1.07,0.74,2.16,1.16,3.29c0.23,0.64,0.48,1.29,0.71,1.97
					c2.24,5.81,6.38,14.48,13.42,22.82c6.43,7.69,14.59,14.28,23.61,19.03c9.02,4.75,19.06,7.77,29.04,8.73
					c10.86,1.09,20.36-0.39,26.43-1.83C426.04,344.38,426.72,344.21,427.38,344.04z"/>
			</g>
			<g>
				<path class="st2" d="M404.51,350.29l-3.68-0.13c-0.42-0.01-0.87-0.02-1.33-0.08l-6.64-0.9c-5.05-0.92-14.8-3.21-24.62-8.35
					c-9.8-5.21-17.2-11.96-20.73-15.52l-4.54-5.02c-0.34-0.38-0.6-0.75-0.85-1.09l-2.19-2.96l3.92-2.9l1.88,2.54
					c0.09,0.12,0.21,0.29,0.34,0.46c0.16,0.22,0.34,0.47,0.54,0.7l4.44,4.91c5.61,5.65,12.73,10.98,19.47,14.56
					c6.74,3.53,15.17,6.39,23.12,7.85l6.49,0.87c0.27,0.03,0.57,0.03,0.84,0.04c0.22,0.01,0.43,0.01,0.63,0.02l3.1,0.11
					L404.51,350.29z"/>
			</g>
		</g>
		<g>
			<g>
				<path class="st2" d="M443.37,198.35l-6.43-2.98c-0.66-0.35-1.4-0.6-2.19-0.86c-0.41-0.14-0.83-0.28-1.26-0.44l-4.14-1.44
					c-0.92-0.31-1.91-0.54-2.97-0.78c-0.6-0.14-1.21-0.28-1.84-0.43l-1.13-0.27c-1.35-0.33-2.74-0.67-4.2-0.8
					c-8.04-1.44-17.04-1.35-26.11,0.27c-9.81,1.75-19.43,5.48-27.83,10.78c-8.45,5.28-15.96,12.35-21.72,20.44
					c-6.44,9.02-9.84,17.7-11.56,23.38c-1.87,6.84-2.96,13.31-3.07,18.2c-0.03,0.85-0.06,1.62-0.08,2.33
					c-0.05,1.17-0.08,2.14-0.08,2.89l0.11,1.82l-1.22,0.07l-0.11-1.85c0-0.8,0.04-1.79,0.08-2.98c0.03-0.7,0.06-1.47,0.09-2.31
					c0.11-4.98,1.22-11.56,3.12-18.51c1.75-5.79,5.21-14.59,11.74-23.75c5.85-8.22,13.48-15.4,22.07-20.77
					c8.52-5.38,18.3-9.17,28.26-10.95c9.2-1.64,18.36-1.74,26.48-0.27c1.5,0.13,2.94,0.48,4.32,0.82l1.13,0.27
					c0.62,0.16,1.23,0.3,1.81,0.43c1.09,0.25,2.11,0.48,3.09,0.82l4.16,1.44c0.43,0.16,0.83,0.29,1.23,0.43
					c0.84,0.28,1.63,0.54,2.35,0.92l6.4,2.97L443.37,198.35z"/>
			</g>
			<g>
				<path class="st2" d="M400.43,188.78l-1.84,1.06c-0.04,0-0.24,0.02-0.56,0.08l-3.57,0.56c-1.82,0.28-4.09,0.62-6.62,1.37
					l-5.22,1.48l-5.71,2.07l-5.9,2.79c-0.79,0.34-1.5,0.77-2.25,1.22l-3.47,2.08c-6.55,4.1-13.25,9.94-18.34,16
					c-1.33,1.68-2.48,3.25-3.49,4.64c-0.53,0.72-1,1.37-1.42,1.92c-0.26,0.39-0.51,0.83-0.72,1.19c-0.14,0.24-0.26,0.45-0.38,0.63
					l-0.39,0.65l-4.19-2.48l0.42-0.71c0.12-0.19,0.21-0.35,0.32-0.53c0.26-0.44,0.57-0.99,0.98-1.59c0.48-0.63,0.94-1.26,1.44-1.96
					c0.99-1.35,2.21-3.03,3.65-4.84c5.45-6.49,12.57-12.69,19.57-17.07l3.5-2.1c0.86-0.52,1.75-1.06,2.77-1.49l6.12-2.88l8.8-3.03
					l2.6-0.67c2.77-0.82,5.32-1.21,7.18-1.49l3.5-0.55c0.55-0.1,0.92-0.13,1-0.13l0.2,2.43L400.43,188.78z"/>
			</g>
		</g>
	</g>
	<path class="st3" d="M546.27,478.09l-83.33-155.32l-40.39,21.74l87.17,154.98l36.79-20.69
		C546.43,478.56,546.36,478.33,546.27,478.09z"/>
	<path class="st4" d="M474.05,384.1c-6.54-3.91-7.82,1.75-6.8,5.18c0.72,2.42,1.9,3.42,5.88,10.74c3.02,5.54,2.71,6.46,4.47,8.03
		c2.93,2.61,5.6,1.7,7.22,4.56c0.86,1.52,0.26,2.05,1.16,3.77c1.58,3.02,4.12,2.71,5.86,5.01c1.86,2.47-0.93,5.57,1.21,9.9
		c5,10.1,8.48,16.24,11.61,22.17c1.98,3.75,5.34,1.59,7.02,4.43c1.53,2.61,0.26,4.53,2.58,7.88c1.79,2.6,4.11,8.07,6.35,13.59
		c2.19,5.4-9.16,17.93-7.51,17.41c9.17-2.88,21.16-12.86,29.96-17.62c2.55-1.38-12.77-6.15-16.69-10.45
		c-4.83-5.29-1.18-11.78-5.34-16.9c-3.15-3.88-5.12-2.54-9.83-5.82c-1.81-1.26-3.96-8.53-8.49-16.66
		c-3.25-5.83,0.78-12.3-7.33-17.99c-1.68-1.18-1.67-4.87-3.82-7.02c-2.62-2.62-4.26-1.59-6.9-3.21
		C478.43,397.29,478.6,386.82,474.05,384.1z"/>
	<path class="st5" d="M459.71,401.84"/>
	<path class="st6" d="M484.67,433.4c-1.81-3.19-5.4-4-7.74-5.94c-4.33-3.58-7.09-7.6-9.62-12.05c-2.46-4.33-0.69-9.25-4.81-11.13
		c-3.62-1.76-5.11-1.92-7.21-5.61l-23.78-41.77c5.79,0.08,11.4,3.13,14.46,8.5L484.67,433.4z"/>
	<path class="st5" d="M463.68,321.49c-0.49,8.92-0.98,17.85-1.47,26.77l-16.78,9.12l-16.11-8.48l-8.17-4.3
		c7.22-3.91,14.46-7.83,21.7-11.76C449.81,329.05,456.75,325.27,463.68,321.49z"/>
	<circle class="st7" cx="407.03" cy="267.47" r="82.18"/>
	<g>
		<path class="st8" d="M368.5,398.6"/>
		<path class="st8" d="M373.35,381.01"/>
		<path class="st8" d="M519.34,297.53"/>
		<path class="st8" d="M536.33,302.21"/>
		<path class="st8" d="M373.35,381.01"/>
		<path class="st8" d="M379.33,359.29"/>
		<path class="st8" d="M498.82,291.88"/>
		<path class="st8" d="M519.34,297.53"/>
		<path class="st8" d="M379.33,359.29"/>
		<path class="st8" d="M405.02,266.04"/>
		<path class="st8" d="M498.82,291.88"/>
		<path class="st8" d="M368.5,398.6c-29.11-7.7-55.91-24.94-75.24-51.01c-45.23-61.03-32.43-147.16,28.6-192.39
			c61.03-45.23,147.16-32.43,192.39,28.6c26.18,35.33,32.88,79.06,22.07,118.41"/>
		<path class="st8" d="M373.35,381.01c-25.08-6.74-48.15-21.64-64.81-44.12c-39.23-52.93-28.12-127.63,24.8-166.86
			c52.93-39.23,127.63-28.12,166.86,24.8c22.71,30.64,28.52,68.57,19.14,102.7"/>
		<path class="st8" d="M514.26,183.79c-45.23-61.03-131.37-73.83-192.39-28.6c-61.03,45.23-73.83,131.37-28.6,192.39
			c19.33,26.07,46.13,43.31,75.24,51.01"/>
		<path class="st8" d="M379.33,359.29c-19.92-5.6-38.21-17.58-51.49-35.49c-31.82-42.93-22.81-103.52,20.12-135.34
			c42.93-31.82,103.52-22.81,135.34,20.12c18.42,24.85,23.13,55.62,15.53,83.3"/>
		<path class="st8" d="M519.34,297.53c9.38-34.13,3.57-72.06-19.14-102.7c-39.23-52.93-113.93-64.03-166.86-24.8
			c-52.93,39.23-64.03,113.93-24.8,166.86c16.66,22.48,39.74,37.39,64.81,44.12"/>
		<path class="st8" d="M498.82,291.88c7.6-27.68,2.89-58.45-15.53-83.3c-31.82-42.93-92.41-51.93-135.34-20.12
			c-42.93,31.82-51.93,92.41-20.12,135.34c13.28,17.91,31.57,29.89,51.49,35.49"/>
	</g>
	<g>
		<path class="st9" d="M480.56,265.8c-0.03-1.29-0.15-2.58-0.25-3.88l-0.55,2.46L480.56,265.8z"/>
		<path class="st9" d="M478.64,281.85l-5.81,3.27l-0.27,4.6l3.8,2.2c1.67-4.76,2.83-9.67,3.51-14.68l-0.19,0.02L478.64,281.85z"/>
		<path class="st9" d="M470.72,304.24c1.36-2.38,2.59-4.82,3.67-7.32l-2.53,1.42L470.72,304.24z"/>
		<path class="st9" d="M460,302.37l-3.72,0.03l-1.08,4.74l-7.1,3.99l-29.25-2.16l-2.85,1.6l-16.12-5.41l-3.18-2.34l1.95-3.16
			l-1.24-5.51l-4.6-1.54l-1.77-3.15l-15.05-10.14l-3.73,0.03l-3.18-2.34l-0.35-3.95l-4.06-3.9l-2.83,1.59l-12.75-9.37l-4.77-11.8
			l-5.48-3.11l-2.74,1.54c-0.24,0.88-0.4,1.77-0.61,2.66l7.45,14.61l2.47,0.49l0.62,3.07l4.82,4.7l0.2,5.23l-13.53-15.39l-3.78-2.13
			c-1.2,14.21,1.68,28.91,9.18,42.26c19.91,35.4,64.86,48.02,100.21,28.14c11.78-6.62,20.96-16.07,27.32-26.98l-4.99,0.79
			L460,302.37z"/>
		<path class="st9" d="M334.05,259.05c-0.07,0.62-0.19,1.24-0.24,1.87l1.93,0.71L334.05,259.05z"/>
		<path class="st9" d="M352.4,246.6l10.17-5.72l2.05-3.48l7.53-1.91l9.38,6.14l3.7,6.57l5.31-1.08l3.12-5.34l7.03-0.37l8.85,7.92
			l3.34,5.93l9.18-0.1l0.09,6.48l4.42,7.85l3.89,10.23l13.63,10.94l6.56-1.63l6.9,2.31l9.95-5.59l-0.15-10.25l-3.53-6.28l4.46-8.69
			l10.81-4.02l0.9,1.59c-1.17-9.12-4.03-18.18-8.81-26.68c-19.91-35.4-64.86-48.03-100.21-28.15
			c-15.92,8.95-27.16,23.01-32.95,38.98l2.12-1.2L352.4,246.6z"/>
		<path class="st10" d="M351.07,278.77l-0.2-5.23l-4.82-4.7l-0.62-3.07l-2.47-0.49l-7.45-14.61c-0.64,2.76-1.14,5.55-1.46,8.37
			l1.69,2.58l-1.93-0.71c-0.01,0.11-0.03,0.23-0.04,0.34l3.78,2.13L351.07,278.77z"/>
		<path class="st10" d="M338.86,246.48l5.48,3.11l4.77,11.8l12.75,9.37l2.83-1.59l4.06,3.9l0.35,3.95l3.18,2.34l3.73-0.03
			l15.05,10.14l1.77,3.15l4.6,1.54l1.24,5.51l-1.95,3.16l3.18,2.34l16.12,5.41l2.85-1.6l29.25,2.16l7.1-3.99l1.08-4.74l3.72-0.03
			l5.48,3.11l4.99-0.79c0.09-0.15,0.16-0.3,0.25-0.44l1.15-5.9l2.53-1.42c0.71-1.65,1.38-3.31,1.97-5l-3.8-2.2l0.27-4.6l5.81-3.27
			l1.04-4.59l0.19-0.02c0.51-3.79,0.78-7.61,0.7-11.45l-0.8-1.42l0.55-2.46c-0.1-1.28-0.19-2.55-0.35-3.83l-0.9-1.59l-10.81,4.02
			l-4.46,8.69l3.53,6.28l0.15,10.25l-9.95,5.59l-6.9-2.31l-6.56,1.63l-13.63-10.94l-3.89-10.23l-4.42-7.85l-0.09-6.48l-9.18,0.1
			l-3.34-5.93l-8.85-7.92l-7.03,0.37l-3.12,5.34l-5.31,1.08l-3.7-6.57l-9.38-6.14l-7.53,1.91l-2.05,3.48l-10.17,5.72l-12.28-5.55
			l-2.12,1.2c-0.69,1.9-1.34,3.82-1.87,5.78L338.86,246.48z"/>
		<path class="st2" d="M334.59,248.88l0.92,1.8c0.21-0.89,0.37-1.78,0.61-2.66L334.59,248.88z"/>
		<path class="st2" d="M476.04,228.66c-21.43-38.1-69.81-51.69-107.86-30.29c-17.33,9.75-29.5,25.13-35.67,42.56l3.39,2.49
			l2.09-1.17c5.79-15.96,17.03-30.02,32.95-38.98c35.35-19.88,80.3-7.25,100.21,28.15c4.78,8.5,7.64,17.55,8.81,26.68l0.87,1.54
			l-0.51,2.29c0.1,1.29,0.22,2.58,0.25,3.88l3.62,6.43l-1.09,4.74l-3.23,0.28c-0.67,5-1.84,9.92-3.51,14.68l0.44,0.26l-0.88,3.88
			l-1.53,0.86c-1.09,2.5-2.31,4.95-3.67,7.32l-0.08,0.42l-0.17,0.03c-6.36,10.91-15.54,20.36-27.32,26.98
			c-35.35,19.88-80.3,7.25-100.21-28.14c-7.51-13.35-10.39-28.05-9.18-42.26l-1.83-1.03l1.88,0.69c0.06-0.63,0.17-1.24,0.24-1.87
			l-4.6-7.03c-3.55,17.91-1.04,37.11,8.6,54.25c20.34,36.16,64.94,50.18,101.96,33.23c1.57-1.65,3.33-3.13,5.28-4.34
			c2.33-1.45,4.81-2.36,7.34-2.83C485.48,309.26,496.15,264.43,476.04,228.66z"/>
		<path class="st2" d="M480.83,259.63l-0.87-1.54c0.16,1.28,0.26,2.55,0.35,3.83L480.83,259.63z"/>
		<path class="st2" d="M475.92,296.06l0.88-3.88l-0.44-0.26c-0.59,1.69-1.25,3.35-1.97,5L475.92,296.06z"/>
		<path class="st2" d="M331.93,260.23l1.83,1.03c0.01-0.11,0.03-0.23,0.04-0.34L331.93,260.23z"/>
		<path class="st2" d="M470.64,304.66l0.08-0.42c-0.08,0.15-0.16,0.3-0.25,0.44L470.64,304.66z"/>
		<path class="st2" d="M335.51,250.68l-0.92-1.8l1.53-0.86c0.53-1.95,1.18-3.87,1.87-5.78l-2.09,1.17l-3.39-2.49
			c-1.28,3.62-2.32,7.32-3.06,11.1l4.6,7.03C334.38,256.23,334.87,253.44,335.51,250.68z"/>
		<path class="st2" d="M479.87,277.25l3.23-0.28l1.09-4.74l-3.62-6.43C480.65,269.64,480.37,273.46,479.87,277.25z"/>
	</g>
	<path class="st1" d="M419.28,280.9l-5.54,7.55c-0.94,1.28-0.66,3.1,0.62,4.04l0.22,0.16l0.22,0.16l2.33,1.71l0,0
		c2.8,2.06,6.78,1.45,8.84-1.36l1.48-2.01c2.06-2.8,1.45-6.78-1.36-8.84l0,0l-2.33-1.71l-0.22-0.16l-0.22-0.16
		C422.03,279.34,420.21,279.62,419.28,280.9L419.28,280.9z M419.53,286.89c0.55-0.75,1.61-0.91,2.36-0.36
		c0.48,0.35,0.72,0.91,0.69,1.46c0.04,0.02,0.09,0.05,0.13,0.08l0.78,0.57c0.41,0.3,0.5,0.88,0.2,1.29l0,0
		c-0.3,0.41-0.88,0.5-1.29,0.2l-0.78-0.57c-0.04-0.03-0.08-0.06-0.11-0.1c-0.52,0.2-1.12,0.14-1.6-0.22
		C419.14,288.69,418.97,287.64,419.53,286.89L419.53,286.89z M417.6,279.45c0.59,0.43,0.72,1.26,0.28,1.86
		c-0.43,0.59-1.26,0.72-1.86,0.28l-1.09-0.8l0,0c-0.49-0.36-1.08-0.49-1.64-0.4c-0.56,0.09-1.09,0.38-1.45,0.87l0,0v0
		c-0.36,0.49-0.49,1.08-0.4,1.64c0.09,0.56,0.38,1.08,0.87,1.44l1.09,0.8c0.59,0.43,0.72,1.26,0.28,1.86
		c-0.43,0.59-1.26,0.72-1.86,0.28l-1.09-0.8c-1.08-0.79-1.74-1.95-1.93-3.18c-0.19-1.23,0.09-2.53,0.88-3.61l0,0l0,0
		c0.8-1.08,1.95-1.74,3.18-1.93c1.23-0.19,2.53,0.09,3.61,0.88l0,0L417.6,279.45z"/>
	<path class="st1" d="M383.98,261.94l-4.53,8.43c-0.77,1.43-0.23,3.23,1.2,3.99l0.25,0.13l0.25,0.13l2.6,1.4l0,0
		c3.13,1.68,7.07,0.5,8.75-2.63l1.21-2.25c1.68-3.13,0.5-7.07-2.63-8.75l0,0l-2.6-1.4l-0.25-0.13l-0.25-0.13
		C386.55,259.96,384.75,260.51,383.98,261.94L383.98,261.94z M385.09,267.96c0.45-0.84,1.5-1.15,2.33-0.7
		c0.54,0.29,0.86,0.82,0.9,1.38c0.05,0.02,0.1,0.04,0.14,0.06l0.87,0.47c0.46,0.25,0.63,0.82,0.39,1.28l0,0
		c-0.25,0.46-0.82,0.63-1.28,0.39l-0.87-0.47c-0.05-0.02-0.09-0.05-0.13-0.08c-0.5,0.27-1.12,0.3-1.65,0.01
		C384.95,269.85,384.64,268.8,385.09,267.96L385.09,267.96z M385.5,254.35c0.66,0.35,0.91,1.18,0.55,1.84
		c-0.35,0.66-1.18,0.91-1.84,0.55l-1.22-0.65l0,0c-0.55-0.29-1.16-0.34-1.71-0.17c-0.56,0.17-1.05,0.54-1.34,1.09l0,0l0,0
		c-0.29,0.55-0.34,1.16-0.17,1.71s0.54,1.04,1.09,1.33l1.22,0.65c0.66,0.35,0.91,1.18,0.55,1.84c-0.35,0.66-1.18,0.91-1.84,0.55
		l-1.22-0.65c-1.21-0.65-2.04-1.73-2.4-2.94c-0.37-1.22-0.27-2.57,0.38-3.78l0,0l0,0c0.65-1.21,1.73-2.04,2.94-2.41
		c1.22-0.37,2.57-0.27,3.78,0.38l0,0L385.5,254.35z"/>
	<line class="st11" x1="392.84" y1="292.47" x2="416.2" y2="258.15"/>
	<polygon class="st12" points="463.68,321.49 421.15,344.6 426.34,349.09 464.09,329.07 	"/>
</g>
</svg>
