<?xml version="1.0" encoding="utf-8"?>
<!-- Generator: Adobe Illustrator 25.0.0, SVG Export Plug-In . SVG Version: 6.00 Build 0)  -->
<svg version="1.1" id="Capa_1" xmlns="http://www.w3.org/2000/svg" xmlns:xlink="http://www.w3.org/1999/xlink" x="0px" y="0px"
	 viewBox="0 0 841.89 595.28" style="enable-background:new 0 0 841.89 595.28;" xml:space="preserve">
<style type="text/css">
	.st0{fill-rule:evenodd;clip-rule:evenodd;fill:#CBC9C9;}
	.st1{fill-rule:evenodd;clip-rule:evenodd;fill:#167EBD;}
	.st2{fill-rule:evenodd;clip-rule:evenodd;fill:#868789;stroke:#868789;stroke-miterlimit:10;}
	.st3{fill:#343432;}
	.st4{fill:#020203;stroke:#020203;stroke-width:0.75;stroke-miterlimit:10;}
	.st5{fill-rule:evenodd;clip-rule:evenodd;fill:#151515;}
	.st6{fill-rule:evenodd;clip-rule:evenodd;fill:url(#SVGID_1_);}
	.st7{fill-rule:evenodd;clip-rule:evenodd;fill:url(#SVGID_2_);}
	.st8{fill:#FFFFFF;}
	.st9{fill:none;}
</style>
<g>
	<g>
		<rect x="381.92" y="377.99" class="st0" width="25.38" height="86.09"/>
		<g>
			<rect x="382.95" y="377.99" class="st0" width="25.38" height="86.09"/>
			<g>
				<path class="st1" d="M192.06,334.78c0,46.96,15.94,90.22,42.68,124.67l20.98-20.98c-21.52-28.98-34.25-64.86-34.25-103.69
					c0-96.15,78.03-174.18,174.18-174.18c96.15,0,174.18,78.03,174.18,174.18c0,38.91-12.78,74.85-34.37,103.86l20.97,20.97
					c26.82-34.48,42.8-77.8,42.8-124.83c0-112.38-91.21-203.58-203.59-203.58C283.26,131.19,192.06,222.4,192.06,334.78
					L192.06,334.78z"/>
				<path class="st1" d="M250.9,337.87c0.66,30.7,10.85,58.97,27.68,82.06l20.75-21.65c-11.6-17.55-18.55-38.46-19.03-61.03
					c-1.36-63.67,49.21-116.45,112.88-117.81c63.67-1.36,116.45,49.21,117.82,112.88c0.48,22.64-5.6,43.9-16.51,61.96l21.65,20.74
					c15.9-23.81,24.91-52.55,24.26-83.33c-1.71-79.9-67.94-143.36-147.84-141.65C312.65,191.74,249.19,257.97,250.9,337.87
					L250.9,337.87z"/>
				<path class="st1" d="M309.69,336.61c0.31,14.4,4.15,27.9,10.68,39.7l21.88-22.84c-1.92-5.49-3.03-11.36-3.16-17.49
					c-0.67-31.23,24.12-57.09,55.35-57.76c31.23-0.67,57.1,24.12,57.77,55.34c0.13,6.2-0.74,12.2-2.47,17.82l22.81,21.85
					c6.07-12.11,9.37-25.83,9.06-40.3c-1.01-47.45-40.34-85.13-87.79-84.11C346.36,249.84,308.67,289.16,309.69,336.61
					L309.69,336.61z"/>
				<g>
					<g>
						<g>
							<path class="st2" d="M397.72,462.33l6.56-0.14l-7.81-8.15l-0.3-9.21l5.24-6.6l-0.39-6.12l-4.62-3.51l0.31-4.95l4.45-4.29
								l-0.53-6.86c-0.01-0.11-0.08-0.2-0.18-0.23l-6.36-2.17c0,0-0.35-13.03-2.07-10.4l-0.13,10.17l5.55,4.56l-0.55,3.69
								l-4.44,5.21l0.05,6.1l4.4,3.54l-0.07,5.76l-4.46,2.91l0.59,12.13l-7.18,8.62C385.77,462.39,397.72,462.33,397.72,462.33z"/>
							<g>
								<g>
									<g>
										<path class="st3" d="M430.81,331.09c-0.15-0.73-0.39-1.4-0.62-2.05l-0.19-0.54c-0.11-0.28-0.2-0.56-0.3-0.84
											c-0.17-0.51-0.34-0.98-0.55-1.44l-0.91-1.92c-0.1-0.19-0.18-0.38-0.27-0.56c-0.18-0.39-0.34-0.75-0.56-1.06l-1.76-2.92
											l-0.5,0.3l1.77,2.93c0.19,0.28,0.35,0.63,0.52,0.99c0.09,0.19,0.18,0.38,0.27,0.57l0.91,1.91
											c0.2,0.42,0.36,0.89,0.53,1.38c0.1,0.28,0.19,0.57,0.3,0.85l0.19,0.54c0.23,0.63,0.46,1.27,0.61,1.99
											c1.1,3.74,1.53,8.05,1.23,12.46c-0.32,4.78-1.6,9.57-3.7,13.86c-2.08,4.31-5.07,8.27-8.63,11.44
											c-3.98,3.55-7.94,5.63-10.56,6.74c-3.18,1.25-6.21,2.11-8.55,2.42c-0.4,0.06-0.77,0.11-1.1,0.16
											c-0.56,0.08-1.02,0.15-1.36,0.19l-0.89,0.04l0,0.01c0.67,0.07,1.32,0.2,1.95,0.39c0.13-0.02,0.24-0.04,0.38-0.06
											c0.33-0.05,0.7-0.11,1.1-0.16c2.38-0.31,5.46-1.19,8.69-2.46c1.72-0.73,4-1.87,6.48-3.55c1.37-0.93,2.81-2.02,4.24-3.3
											c3.62-3.22,6.65-7.24,8.77-11.62c2.13-4.36,3.43-9.22,3.76-14.07C432.36,339.25,431.93,334.87,430.81,331.09z"/>
									</g>
									<g>
										<path class="st3" d="M418.47,372.56l-1.41-1.87l0.32-0.24c0.05-0.04,0.15-0.11,0.26-0.19c0.16-0.12,0.36-0.26,0.57-0.44
											c0.2-0.19,0.49-0.46,0.81-0.75c0.61-0.56,1.3-1.18,2.05-1.93c2.6-2.72,5.04-6.23,6.67-9.59l0.8-1.74
											c0.18-0.39,0.35-0.75,0.46-1.1l1.04-3.01l0.87-3.68l0.24-1.69c0.23-1.28,0.28-2.39,0.32-3.27l0.08-1.72
											c0.01-0.17,0.01-0.26,0.01-0.29l2.34-0.12c0,0,0.01,0.19-0.01,0.54l-0.08,1.68c-0.04,0.91-0.09,2.14-0.35,3.55l-0.34,2.2
											l-0.86,3.51l-1.04,3.01c-0.14,0.47-0.35,0.93-0.56,1.37l-0.81,1.75c-1.74,3.6-4.33,7.32-7.12,10.24
											c-0.81,0.8-1.55,1.47-2.14,2.01c-0.31,0.28-0.58,0.54-0.82,0.76c-0.31,0.27-0.55,0.45-0.75,0.59
											c-0.08,0.06-0.15,0.11-0.21,0.16L418.47,372.56z"/>
									</g>
								</g>
								<g>
									<g>
										<path class="st3" d="M385.33,378.21c0.56,0.14,1.1,0.27,1.65,0.38l2.78,0.4c0.24,0.04,0.47,0.07,0.72,0.1l1.25,0.06
											c0.66-0.22,1.33-0.39,2.02-0.5l-3.22-0.14c-0.22-0.03-0.45-0.06-0.68-0.09l-2.76-0.4c-0.52-0.1-1.05-0.24-1.6-0.37
											c-0.32-0.08-0.65-0.16-0.97-0.24c-2.85-0.75-7.14-2.26-11.43-5.14c-3.95-2.63-7.46-6.13-10.16-10.13
											c-2.7-4-4.63-8.57-5.6-13.21c-1.07-5.05-0.86-9.6-0.5-12.51c0.05-0.34,0.1-0.67,0.14-1c0.08-0.56,0.15-1.11,0.25-1.61
											l0.67-2.73c0.05-0.23,0.11-0.45,0.16-0.65l1.17-3.36l1.1-2.4l-0.53-0.24l-1.03,2.23l-1.27,3.59
											c-0.06,0.22-0.12,0.45-0.17,0.68l-0.67,2.74c-0.1,0.53-0.18,1.08-0.26,1.65c-0.05,0.32-0.09,0.65-0.15,1
											c-0.37,2.97-0.58,7.58,0.51,12.71c0.98,4.72,2.94,9.36,5.69,13.42c2.74,4.06,6.31,7.62,10.32,10.29
											c4.35,2.93,8.71,4.45,11.61,5.22C384.69,378.05,385.02,378.13,385.33,378.21z"/>
									</g>
									<g>
										<path class="st3" d="M374.23,375.67l-1.53-0.89c-0.17-0.1-0.36-0.21-0.55-0.34l-2.61-1.89c-1.93-1.54-5.54-4.72-8.54-9.12
											c-2.97-4.43-4.57-8.97-5.26-11.28l-0.79-3.16c-0.06-0.24-0.09-0.45-0.11-0.65l-0.26-1.75l2.32-0.34l0.22,1.5
											c0.01,0.07,0.03,0.17,0.04,0.27c0.02,0.13,0.04,0.27,0.07,0.42l0.77,3.09c1.09,3.66,2.9,7.54,4.94,10.59
											c2.06,3.02,4.98,6.15,8.01,8.57l2.55,1.84c0.11,0.07,0.23,0.14,0.35,0.21c0.09,0.05,0.18,0.1,0.26,0.15l1.29,0.75
											L374.23,375.67z"/>
									</g>
								</g>
								<g>
									<g>
										<path class="st3" d="M425.17,320.11l-2.05-2.72c-0.2-0.3-0.46-0.57-0.73-0.86c-0.14-0.15-0.29-0.31-0.43-0.47l-1.43-1.55
											c-0.32-0.34-0.69-0.66-1.08-1c-0.22-0.19-0.45-0.39-0.68-0.6l-0.42-0.37c-0.5-0.45-1.01-0.9-1.6-1.29
											c-3.08-2.43-6.91-4.44-11.12-5.81c-4.55-1.48-9.48-2.09-14.23-1.75c-4.78,0.32-9.56,1.61-13.84,3.73
											c-4.77,2.36-8.19,5.26-10.2,7.28c-2.34,2.47-4.27,4.97-5.43,7.02c-0.2,0.35-0.39,0.67-0.56,0.97
											c-0.28,0.48-0.52,0.89-0.69,1.2l-0.36,0.79l-0.53-0.24l0.37-0.81c0.18-0.34,0.42-0.75,0.71-1.24
											c0.17-0.29,0.36-0.61,0.56-0.96c1.18-2.09,3.14-4.62,5.52-7.13c2.06-2.05,5.52-5,10.36-7.4c4.34-2.16,9.2-3.47,14.06-3.79
											c4.83-0.35,9.83,0.27,14.46,1.77c4.27,1.39,8.17,3.43,11.28,5.89c0.6,0.4,1.13,0.87,1.65,1.33l0.42,0.37
											c0.23,0.21,0.45,0.4,0.67,0.59c0.4,0.35,0.79,0.68,1.13,1.05l1.43,1.55c0.14,0.16,0.29,0.31,0.42,0.46
											c0.29,0.31,0.57,0.6,0.78,0.92l2.04,2.71L425.17,320.11z"/>
									</g>
									<g>
										<path class="st3" d="M409.15,306.32l-1.02,0.03c-0.02-0.01-0.11-0.04-0.26-0.09l-1.64-0.57c-0.84-0.3-1.87-0.66-3.11-0.92
											l-2.55-0.56l-2.89-0.42l-3.13-0.16c-0.41-0.04-0.81-0.02-1.23,0.01l-1.94,0.09c-3.71,0.25-7.87,1.2-11.4,2.62
											c-0.94,0.41-1.79,0.82-2.53,1.17c-0.39,0.19-0.73,0.35-1.04,0.49c-0.2,0.1-0.41,0.23-0.58,0.34
											c-0.11,0.07-0.21,0.13-0.3,0.18l-0.31,0.19l-1.21-2l0.34-0.21c0.09-0.05,0.17-0.1,0.25-0.15
											c0.21-0.13,0.47-0.29,0.78-0.45c0.35-0.16,0.68-0.32,1.06-0.5c0.72-0.35,1.62-0.78,2.64-1.22
											c3.78-1.51,8.2-2.52,12.17-2.79l1.96-0.1c0.48-0.03,0.98-0.05,1.51,0l3.25,0.17l4.42,0.71l1.25,0.31
											c1.36,0.28,2.53,0.69,3.38,1l1.61,0.56c0.26,0.08,0.42,0.15,0.45,0.17l-0.47,1.07L409.15,306.32z"/>
									</g>
								</g>
							</g>
							<circle class="st4" cx="394.09" cy="341.15" r="39.5"/>
							<path class="st5" d="M411.56,315.73c0.28,2.63,0.63,6.28,0.92,9.57c0.28,3.29,0.51,6.22,0.69,9.17
								c0.07,1.03,0.13,2.07,0.19,3.09c0,0.18,0.01,0.36,0.01,0.52c0,0.17,0,0.33-0.09,0.45c-0.09,0.12-0.25,0.2-0.52,0.24
								c-0.27,0.03-0.63,0.02-1.35-0.08c-0.72-0.09-1.8-0.27-3.33-0.47c-1.53-0.2-3.51-0.44-5.47-0.6
								c-1.97-0.16-3.92-0.26-5.41-0.29c-1.5-0.03-2.55,0.01-3.6,0.04c-1.05,0.04-2.1,0.07-3.59,0.2c-1.49,0.13-3.43,0.36-5.38,0.66
								c-1.95,0.3-3.91,0.67-5.42,0.97c-1.51,0.31-2.57,0.55-3.29,0.7c-0.71,0.14-1.08,0.18-1.35,0.17
								c-0.27-0.02-0.44-0.09-0.54-0.2c-0.09-0.11-0.11-0.27-0.12-0.44c-0.01-0.17-0.02-0.35-0.03-0.52
								c-0.01-1.02-0.02-2.06-0.02-3.09c-0.01-2.95,0.01-5.89,0.07-9.19c0.06-3.3,0.16-6.96,0.26-9.61
								c0.03-0.75,0.06-1.41,0.09-2.01c0.01-0.2,0.02-0.41,0.06-0.63c0.04-0.22,0.1-0.46,0.36-0.68c0.26-0.23,0.71-0.44,1.84-0.82
								c1.13-0.39,2.94-0.96,4.92-1.44c1.97-0.49,4.1-0.89,5.74-1.15c1.64-0.26,2.78-0.37,3.61-0.44c0.83-0.07,1.34-0.08,1.85-0.1
								c0.51-0.02,1.02-0.04,1.85-0.03c0.83,0.01,1.98,0.04,3.63,0.19c1.65,0.15,3.8,0.41,5.8,0.76c2,0.35,3.85,0.79,5,1.1
								c1.16,0.31,1.62,0.49,1.89,0.7c0.27,0.21,0.35,0.44,0.41,0.66c0.05,0.22,0.08,0.42,0.1,0.62
								C411.4,314.33,411.48,314.99,411.56,315.73z"/>
							<path class="st5" d="M413.61,342.42c0.05,0.9,0.09,1.77,0.13,2.62c0.13,2.67,0.24,5.04,0.33,7.93c0.1,2.89,0.18,6.3,0.25,9.3
								c0.05,2.22,0.1,4.21,0.14,6.25c0,0.17,0,0.35-0.01,0.47c-0.01,0.12-0.02,0.19-0.09,0.27c-0.07,0.07-0.2,0.15-0.38,0.18
								c-0.18,0.03-0.42,0.03-1-0.02c-0.58-0.05-1.5-0.14-3.21-0.25c-1.71-0.11-4.22-0.24-6.6-0.31c-2.38-0.07-4.64-0.08-6.03-0.07
								c-1.39,0-1.92,0.02-2.45,0.04c-0.53,0.02-1.05,0.04-2.44,0.13c-1.39,0.09-3.64,0.25-6.01,0.49
								c-2.37,0.23-4.86,0.53-6.56,0.76c-1.7,0.23-2.62,0.38-3.19,0.47c-0.57,0.09-0.81,0.11-0.99,0.09
								c-0.18-0.02-0.32-0.09-0.39-0.15c-0.07-0.07-0.09-0.14-0.11-0.26c-0.01-0.12-0.03-0.3-0.04-0.47
								c-0.1-2.03-0.19-4.02-0.29-6.24c-0.13-2.99-0.28-6.4-0.39-9.29c-0.1-2.89-0.16-5.26-0.21-7.93
								c-0.02-0.85-0.03-1.72-0.05-2.62c0-0.15,0-0.29,0.03-0.46c0.03-0.16,0.08-0.34,0.26-0.46c0.18-0.12,0.5-0.18,1.75-0.44
								c1.25-0.26,3.42-0.73,5.46-1.13c2.04-0.4,3.95-0.73,5.58-0.95c1.62-0.22,2.95-0.32,4.01-0.39c1.05-0.06,1.82-0.09,2.6-0.12
								c0.77-0.03,1.54-0.05,2.6-0.06c1.05-0.01,2.39,0,4.02,0.11c1.63,0.11,3.56,0.31,5.63,0.57c2.07,0.26,4.27,0.57,5.53,0.75
								c1.26,0.18,1.58,0.21,1.77,0.32c0.19,0.11,0.25,0.28,0.29,0.44C413.59,342.13,413.6,342.28,413.61,342.42z"/>
							
								<linearGradient id="SVGID_1_" gradientUnits="userSpaceOnUse" x1="298.7181" y1="260.9828" x2="298.7263" y2="280.8138" gradientTransform="matrix(0.9994 -0.0342 0.0342 0.9994 87.2309 93.6259)">
								<stop  offset="0" style="stop-color:#F1F2F5"/>
								<stop  offset="1" style="stop-color:#B7B4C9"/>
							</linearGradient>
							<path class="st6" d="M389.35,353.53l9.58-0.33l0.01-0.03l0.55-1.02c0.5-0.93,0.58-1.99,0.29-2.94
								c-0.29-0.95-0.93-1.79-1.86-2.29c-0.93-0.5-1.99-0.58-2.94-0.29c-0.95,0.28-1.79,0.93-2.29,1.86l-0.47,0.88
								c-0.27,0.5-0.9,0.69-1.4,0.42l-0.2-0.11c-0.5-0.27-0.69-0.9-0.42-1.4l0.47-0.88c0.8-1.49,2.14-2.52,3.65-2.97
								c1.51-0.45,3.19-0.33,4.68,0.47c1.49,0.8,2.52,2.14,2.97,3.65c0.45,1.51,0.33,3.19-0.47,4.68l-0.02,0.05
								c0.63,0.27,1.08,0.89,1.11,1.62l0.15,4.32c0.09,2.52-1.9,4.64-4.42,4.73l-5.86,0.2c-2.52,0.09-4.64-1.9-4.73-4.42l-0.15-4.32
								C387.55,354.42,388.34,353.56,389.35,353.53z"/>
							
								<linearGradient id="SVGID_2_" gradientUnits="userSpaceOnUse" x1="298.0168" y1="231.3497" x2="298.0231" y2="248.7133" gradientTransform="matrix(0.9994 -0.0342 0.0342 0.9994 87.2309 93.6259)">
								<stop  offset="0" style="stop-color:#F1F2F5"/>
								<stop  offset="1" style="stop-color:#B7B4C9"/>
							</linearGradient>
							<path class="st7" d="M389.6,321.39l7.73-0.26l-0.02-0.48c-0.04-1.06-0.5-2.01-1.23-2.69c-0.72-0.68-1.7-1.08-2.77-1.04
								c-1.06,0.04-2.01,0.5-2.69,1.23c-0.68,0.72-1.08,1.71-1.04,2.77L389.6,321.39L389.6,321.39z M399.62,321.19
								c0.67,0.26,1.15,0.89,1.18,1.65l0.15,4.32c0.09,2.52-1.9,4.65-4.42,4.73l-5.87,0.2c-2.52,0.09-4.65-1.9-4.74-4.42l-0.15-4.32
								c-0.03-0.93,0.64-1.72,1.54-1.87l-0.02-0.49c-0.06-1.69,0.58-3.25,1.66-4.41c1.08-1.15,2.59-1.9,4.28-1.95
								c1.69-0.06,3.26,0.58,4.41,1.66c1.15,1.08,1.9,2.59,1.95,4.28L399.62,321.19z"/>
						</g>
					</g>
				</g>
			</g>
		</g>
	</g>
	<g>
		<path class="st8" d="M134.84,305.21v15.16c0,0.41-0.15,0.75-0.46,1.03c-0.3,0.28-0.66,0.42-1.07,0.42h-16.69v56.54
			c0,0.46-0.15,0.83-0.46,1.11c-0.3,0.28-0.66,0.42-1.07,0.42H96.67c-0.41,0-0.75-0.14-1.03-0.42c-0.28-0.28-0.42-0.65-0.42-1.11
			v-56.54H78.54c-0.46,0-0.83-0.14-1.1-0.42c-0.28-0.28-0.42-0.62-0.42-1.03v-15.16c0-0.46,0.14-0.82,0.42-1.1
			c0.28-0.28,0.65-0.42,1.1-0.42h54.78c0.41,0,0.76,0.14,1.07,0.42C134.69,304.38,134.84,304.75,134.84,305.21z"/>
		<path class="st8" d="M145.82,379.88c-0.46,0-0.83-0.14-1.1-0.42c-0.28-0.28-0.42-0.65-0.42-1.11v-73.15c0-0.46,0.14-0.82,0.42-1.1
			c0.28-0.28,0.65-0.42,1.1-0.42h44.73c0.41,0,0.76,0.14,1.07,0.42c0.3,0.28,0.46,0.65,0.46,1.1v15.16c0,0.41-0.15,0.76-0.46,1.07
			s-0.66,0.46-1.07,0.46H165.7v10.82h21.49c0.41,0,0.75,0.14,1.03,0.42c0.28,0.28,0.42,0.62,0.42,1.03v15.24
			c0,0.41-0.14,0.75-0.42,1.03c-0.28,0.28-0.62,0.42-1.03,0.42H165.7v10.9h24.84c0.41,0,0.76,0.14,1.07,0.42
			c0.3,0.28,0.46,0.62,0.46,1.03v15.16c0,0.46-0.15,0.83-0.46,1.11c-0.3,0.28-0.66,0.42-1.07,0.42H145.82z"/>
		<path class="st8" d="M254.62,353.52l14.71,11.66c0.3,0.25,0.48,0.58,0.53,0.99c0.05,0.41-0.05,0.76-0.3,1.07
			c-3.76,4.62-8.34,8.25-13.75,10.9c-5.41,2.64-11.21,3.96-17.41,3.96c-5.44,0-10.62-1.04-15.54-3.12
			c-4.93-2.08-9.18-4.9-12.76-8.46c-3.58-3.56-6.43-7.8-8.53-12.72c-2.11-4.93-3.16-10.08-3.16-15.47c0-5.38,1.05-10.53,3.16-15.43
			c2.11-4.9,4.95-9.13,8.53-12.69c3.58-3.55,7.83-6.39,12.76-8.5c4.93-2.11,10.11-3.16,15.54-3.16c6.15,0,11.94,1.32,17.37,3.96
			c5.44,2.64,10.01,6.25,13.72,10.82c0.25,0.36,0.35,0.74,0.3,1.14c-0.05,0.41-0.23,0.74-0.53,0.99l-14.71,11.58
			c-0.31,0.25-0.65,0.37-1.03,0.34c-0.38-0.03-0.7-0.19-0.95-0.5c-1.78-1.98-3.92-3.61-6.44-4.88c-2.51-1.27-5.09-1.91-7.73-1.91
			c-5.08,0-9.4,1.78-12.95,5.33c-3.56,3.56-5.33,7.85-5.33,12.88c0,5.03,1.78,9.32,5.33,12.88c3.55,3.56,7.87,5.33,12.95,5.33
			c2.64,0,5.23-0.63,7.77-1.91c2.54-1.27,4.7-2.92,6.48-4.95c0.25-0.3,0.57-0.47,0.95-0.5
			C253.97,353.15,254.32,353.26,254.62,353.52z"/>
		<path class="st8" d="M325.1,305.21c0-0.46,0.14-0.82,0.42-1.1c0.28-0.28,0.62-0.42,1.03-0.42h18.44c0.41,0,0.76,0.14,1.07,0.42
			c0.3,0.28,0.46,0.65,0.46,1.1v73.15c0,0.41-0.15,0.76-0.46,1.07c-0.31,0.3-0.66,0.46-1.07,0.46h-19.05
			c-0.56,0-0.99-0.25-1.29-0.76L300.8,336.9v41.45c0,0.46-0.15,0.83-0.46,1.11c-0.3,0.28-0.66,0.42-1.07,0.42h-18.36
			c-0.46,0-0.83-0.14-1.1-0.42c-0.28-0.28-0.42-0.65-0.42-1.11v-73.15c0-0.46,0.14-0.82,0.42-1.1c0.28-0.28,0.65-0.42,1.1-0.42
			h19.05c0.56,0,0.96,0.23,1.22,0.69l23.92,38.48V305.21z"/>
		<path class="st9" d="M380.65,305.7c4.98-2.11,10.2-3.16,15.66-3.16c5.46,0,10.68,1.05,15.66,3.16c4.98,2.11,9.27,4.94,12.88,8.5
			c3.61,3.56,6.48,7.79,8.61,12.69c2.13,4.9,3.2,10.05,3.2,15.43c0,5.38-1.07,10.54-3.2,15.47c-2.13,4.93-5,9.17-8.61,12.72
			c-3.61,3.55-7.9,6.37-12.88,8.46c-4.98,2.08-10.2,3.12-15.66,3.12c-5.46,0-10.68-1.04-15.66-3.12c-4.98-2.08-9.27-4.9-12.88-8.46
			c-3.61-3.56-6.48-7.8-8.61-12.72c-2.13-4.93-3.2-10.08-3.2-15.47c0-5.38,1.07-10.53,3.2-15.43c2.13-4.9,5-9.13,8.61-12.69
			C371.38,310.64,375.67,307.81,380.65,305.7z M383.24,355.19c3.61,3.56,7.96,5.33,13.07,5.33c5.11,0,9.46-1.78,13.07-5.33
			c3.61-3.55,5.41-7.85,5.41-12.88c0-5.03-1.8-9.32-5.41-12.88c-3.61-3.55-7.96-5.33-13.07-5.33c-5.1,0-9.46,1.78-13.07,5.33
			c-3.61,3.56-5.41,7.85-5.41,12.88C377.83,347.34,379.63,351.64,383.24,355.19z"/>
		<path class="st8" d="M491.66,378.36c0,0.46-0.14,0.83-0.42,1.11c-0.28,0.28-0.62,0.42-1.03,0.42H447.7c-0.46,0-0.83-0.14-1.1-0.42
			c-0.28-0.28-0.42-0.65-0.42-1.11v-73.15c0-0.46,0.14-0.82,0.42-1.1c0.28-0.28,0.65-0.42,1.1-0.42h18.36
			c0.41,0,0.76,0.14,1.07,0.42c0.31,0.28,0.46,0.65,0.46,1.1v56.92h22.55c0.46,0,0.82,0.14,1.1,0.42c0.28,0.28,0.42,0.65,0.42,1.11
			V378.36z"/>
		<path class="st8" d="M546.6,378.36c0,0.46-0.14,0.83-0.42,1.11c-0.28,0.28-0.62,0.42-1.03,0.42h-42.52c-0.46,0-0.83-0.14-1.1-0.42
			c-0.28-0.28-0.42-0.65-0.42-1.11v-73.15c0-0.46,0.14-0.82,0.42-1.1c0.28-0.28,0.65-0.42,1.1-0.42H521c0.41,0,0.76,0.14,1.07,0.42
			c0.31,0.28,0.46,0.65,0.46,1.1v56.92h22.55c0.46,0,0.82,0.14,1.1,0.42c0.28,0.28,0.42,0.65,0.42,1.11V378.36z"/>
		<path class="st8" d="M603.29,303.68c0.66,0,1.12,0.33,1.37,0.99l26.97,72.77c0.05,0.15,0.08,0.3,0.08,0.46v0.53
			c0,0.41-0.14,0.75-0.42,1.03c-0.28,0.28-0.62,0.42-1.03,0.42h-18.74c-0.71,0-1.17-0.33-1.37-0.99l-4.04-10.9h-24.38l-4.11,10.9
			c-0.2,0.66-0.66,0.99-1.37,0.99h-18.67c-0.46,0-0.83-0.14-1.1-0.42c-0.28-0.28-0.42-0.62-0.42-1.03v-0.53
			c0-0.15,0.03-0.33,0.08-0.53l26.97-72.69c0.25-0.66,0.71-0.99,1.37-0.99H603.29z M588.66,349.25h10.51l-5.33-14.1L588.66,349.25z"
			/>
		<path class="st8" d="M657.69,348.33L674,304.67c0.2-0.66,0.66-0.99,1.37-0.99h18.67c0.41,0,0.76,0.14,1.07,0.42
			c0.3,0.28,0.46,0.65,0.46,1.1v0.46c0,0.15-0.03,0.33-0.08,0.53l-26.97,72.69c-0.25,0.66-0.71,0.99-1.37,0.99h-18.82
			c-0.66,0-1.12-0.33-1.37-0.99l-26.97-72.77c-0.05-0.15-0.08-0.3-0.08-0.46v-0.53c0-0.41,0.14-0.75,0.42-1.03
			c0.28-0.28,0.65-0.42,1.1-0.42h18.67c0.71,0,1.17,0.33,1.37,0.99L657.69,348.33z"/>
		<path class="st8" d="M706.53,379.88c-0.46,0-0.83-0.14-1.1-0.42c-0.28-0.28-0.42-0.65-0.42-1.11v-73.15c0-0.46,0.14-0.82,0.42-1.1
			c0.28-0.28,0.65-0.42,1.1-0.42h44.73c0.41,0,0.76,0.14,1.07,0.42c0.3,0.28,0.46,0.65,0.46,1.1v15.16c0,0.41-0.15,0.76-0.46,1.07
			s-0.66,0.46-1.07,0.46h-24.84v10.82h21.49c0.41,0,0.75,0.14,1.03,0.42c0.28,0.28,0.42,0.62,0.42,1.03v15.24
			c0,0.41-0.14,0.75-0.42,1.03c-0.28,0.28-0.62,0.42-1.03,0.42h-21.49v10.9h24.84c0.41,0,0.76,0.14,1.07,0.42
			c0.3,0.28,0.46,0.62,0.46,1.03v15.16c0,0.46-0.15,0.83-0.46,1.11c-0.3,0.28-0.66,0.42-1.07,0.42H706.53z"/>
		<path class="st8" d="M809.16,306.28l-1.45,14.86c-0.05,0.41-0.25,0.75-0.61,1.03c-0.36,0.28-0.74,0.37-1.14,0.27
			c-5.08-1.12-9.73-1.7-13.94-1.75c-1.73-0.05-3.21,0.17-4.46,0.65c-1.25,0.48-2.13,1.1-2.67,1.87s-0.9,1.42-1.1,1.98
			c-0.2,0.56-0.3,1.07-0.3,1.52c0,0.51,0.1,1.07,0.3,1.68c0.2,0.61,0.61,1.37,1.22,2.29c0.61,0.91,1.64,1.8,3.09,2.67
			c1.45,0.86,3.21,1.55,5.3,2.06c2.34,0.56,4.61,1.5,6.82,2.82c2.21,1.32,4.25,2.98,6.13,4.99c1.88,2.01,3.38,4.48,4.5,7.43
			c1.12,2.95,1.68,6.15,1.68,9.6c0,7.42-2.29,12.92-6.86,16.5c-4.57,3.58-11.96,5.37-22.17,5.37c-5.74,0-11.12-0.3-16.15-0.91
			c-0.36-0.05-0.66-0.23-0.92-0.53c-0.25-0.3-0.38-0.66-0.38-1.07l1.45-14.86c0.05-0.46,0.25-0.81,0.61-1.07
			c0.35-0.25,0.76-0.33,1.22-0.23c4.88,1.07,9.35,1.62,13.41,1.68c1.78,0.05,3.29-0.17,4.53-0.65c1.24-0.48,2.12-1.09,2.63-1.83
			c0.51-0.74,0.86-1.4,1.07-1.98c0.2-0.58,0.3-1.11,0.3-1.56c0-0.51-0.1-1.07-0.3-1.68c-0.2-0.61-0.6-1.37-1.18-2.29
			s-1.6-1.8-3.05-2.67c-1.45-0.86-3.21-1.55-5.3-2.06c-2.39-0.56-4.67-1.5-6.86-2.82c-2.18-1.32-4.22-2.97-6.1-4.95
			c-1.88-1.98-3.39-4.46-4.53-7.43c-1.14-2.97-1.71-6.18-1.71-9.64c0-7.11,2.58-12.53,7.73-16.27c5.16-3.73,12.25-5.6,21.3-5.6
			c4.88,0,10.41,0.33,16.61,0.99c0.35,0.05,0.66,0.23,0.91,0.53C809.04,305.51,809.16,305.87,809.16,306.28z"/>
	</g>
</g>
</svg>
